<?xml version="1.0" standalone="no"?>
<!DOCTYPE svg PUBLIC "-//W3C//DTD SVG 20010904//EN"
 "http://www.w3.org/TR/2001/REC-SVG-20010904/DTD/svg10.dtd">
<svg version="1.0" xmlns="http://www.w3.org/2000/svg"
 width="992.000000pt" height="1500.000000pt" viewBox="0 0 992.000000 1500.000000"
 preserveAspectRatio="xMidYMid meet">
<metadata>
Created by potrace 1.16, written by Peter Selinger 2001-2019
</metadata>
<g transform="translate(0.000000,1500.000000) scale(0.100000,-0.100000)"
fill="#000000" stroke="none">
<path d="M4698 14206 c-51 -14 -111 -55 -129 -88 -6 -11 -13 -42 -15 -69 -4
-61 -27 -106 -66 -127 -56 -30 -106 -82 -124 -127 -23 -61 -7 -259 25 -303 24
-34 95 -67 166 -77 33 -5 61 -17 83 -36 18 -16 37 -29 41 -29 10 0 24 -74 26
-137 2 -55 15 -69 15 -17 l0 39 19 -24 c19 -25 26 -121 9 -121 -5 0 -8 5 -8
12 0 6 -3 9 -6 6 -10 -11 34 -85 63 -106 16 -12 28 -30 28 -44 0 -16 7 -24 21
-26 19 -3 22 3 27 59 3 34 9 65 14 68 13 9 33 59 33 81 0 11 5 20 11 20 6 0 8
-9 4 -20 -4 -13 -1 -22 9 -26 9 -3 16 -12 16 -19 0 -7 8 -15 18 -18 20 -5 32
-44 32 -101 0 -17 5 -38 10 -46 9 -13 12 -12 25 4 8 11 15 25 15 32 0 6 11 19
24 27 25 17 26 39 11 174 -4 41 -2 45 56 101 l60 59 70 -5 c118 -8 210 47 224
135 3 21 10 60 15 86 6 27 10 67 10 90 0 50 -37 132 -74 166 -29 27 -31 46
-14 136 14 79 3 110 -60 166 -61 54 -131 73 -236 66 -87 -6 -158 4 -248 34
-65 22 -132 23 -200 5z m163 -457 c35 -12 66 -23 68 -25 8 -7 -21 -34 -30 -28
-5 3 -9 -2 -9 -10 0 -22 -15 -27 -44 -16 -14 5 -26 7 -26 4 0 -3 14 -10 30
-16 33 -11 36 -30 5 -34 -21 -3 -88 25 -119 50 -20 17 -19 20 28 74 24 27 18
27 97 1z m-121 -172 c30 -13 85 -32 123 -43 37 -10 67 -23 67 -29 0 -5 2 -43
3 -83 3 -81 4 -81 -76 -83 -40 -2 -52 2 -78 27 -40 37 -69 94 -74 144 -2 28
-13 47 -37 70 -32 29 -32 30 -8 26 14 -2 50 -15 80 -29z"/>
<path d="M4726 12819 c0 -131 3 -242 7 -245 4 -4 2 -13 -4 -20 -15 -18 18 -25
100 -22 56 3 67 7 98 36 31 29 34 36 24 55 -6 12 -9 14 -7 5 5 -19 -9 -34 -18
-20 -3 5 1 18 9 28 8 10 14 37 13 59 l-1 40 -4 -37 c-5 -46 -19 -50 -25 -7 -4
22 1 34 15 44 16 11 20 27 22 77 1 58 -6 77 -29 78 -4 0 -5 -21 -1 -47 12 -79
11 -87 -10 -91 -15 -4 -17 -1 -8 9 7 10 8 31 2 68 -4 29 -10 54 -11 55 -2 1
-20 9 -40 18 -37 17 -118 108 -118 133 0 8 -3 16 -7 18 -5 3 -8 -102 -7 -234z"/>
<path d="M5400 13004 c0 -13 -7 -15 -30 -10 -17 3 -30 1 -30 -4 0 -6 9 -10 20
-10 13 0 20 -7 20 -20 0 -13 -7 -20 -20 -20 -14 0 -20 -7 -20 -24 0 -19 4 -23
20 -19 14 4 22 -1 29 -19 7 -19 17 -24 52 -25 24 -1 49 1 55 5 6 4 13 30 16
57 l5 51 -46 -6 c-25 -3 -54 -4 -63 -2 -27 5 -21 22 7 22 23 0 24 2 15 20 -13
24 -30 26 -30 4z"/>
<path d="M5171 12865 c0 -76 3 -103 9 -87 8 19 17 22 65 22 68 0 95 13 95 45
0 31 -26 45 -84 45 -32 0 -48 -5 -55 -17 -8 -14 -10 -8 -11 27 0 25 -5 52 -10
60 -7 10 -10 -20 -9 -95z"/>
<path d="M5068 12903 c-19 -22 -32 -56 -18 -48 6 3 10 13 10 21 0 8 5 14 10
14 6 0 10 -9 10 -20 0 -11 -5 -20 -11 -20 -8 0 -8 -4 0 -13 7 -9 8 -24 1 -46
-7 -26 -6 -32 4 -28 8 3 16 -3 19 -14 3 -12 0 -19 -9 -19 -19 0 -18 -9 3 -32
10 -11 18 -35 19 -54 1 -34 -10 -46 -19 -21 -4 9 -6 9 -6 0 -1 -6 4 -15 9 -18
6 -3 10 -15 10 -26 0 -11 7 -19 18 -19 16 -1 16 -1 -1 -11 -10 -6 -27 -9 -38
-6 -10 3 -22 1 -25 -4 -3 -6 13 -9 40 -7 43 3 67 20 45 34 -11 6 -11 194 0
194 4 0 7 29 7 65 -1 36 -4 65 -8 65 -5 0 -8 -17 -8 -37 0 -26 -3 -34 -9 -24
-5 8 -7 20 -4 28 3 7 -2 13 -11 13 -9 0 -16 5 -16 10 0 6 7 10 16 10 19 0 13
24 -7 28 -9 1 -22 -5 -31 -15z"/>
<path d="M4570 12443 c-23 -26 -26 -49 -7 -56 19 -8 -70 -7 -146 2 -65 7 -68
6 -73 -16 -4 -15 0 -31 10 -42 20 -22 21 -51 1 -51 -12 0 -14 -30 -12 -194 1
-107 -1 -197 -4 -200 -3 -3 -52 -1 -110 6 l-104 11 -80 -48 c-44 -26 -89 -56
-100 -65 -11 -9 -27 -20 -35 -24 -52 -22 -132 -80 -186 -133 -18 -17 -35 -29
-38 -26 -3 4 -6 1 -6 -6 0 -7 -5 -9 -10 -6 -6 4 -9 2 -8 -3 4 -12 -57 -72 -72
-72 -6 0 -9 -4 -6 -8 2 -4 -15 -30 -40 -56 -24 -27 -44 -51 -44 -55 0 -4 -13
-20 -30 -36 -16 -16 -28 -31 -25 -33 3 -3 -4 -12 -16 -20 -11 -8 -18 -20 -15
-28 3 -7 -4 -16 -15 -19 -10 -4 -19 -12 -19 -19 0 -8 -7 -20 -16 -27 -9 -7
-20 -22 -25 -34 -12 -27 -32 -59 -42 -66 -4 -3 -7 -10 -6 -15 2 -5 -8 -29 -21
-54 -37 -69 -60 -120 -53 -120 3 0 1 -6 -5 -13 -16 -19 -42 -100 -35 -110 3
-6 1 -7 -5 -3 -7 4 -12 1 -12 -8 0 -9 -5 -15 -12 -14 -17 4 -40 -82 -30 -112
5 -13 5 -45 0 -70 -5 -25 -13 -67 -18 -95 -13 -68 -15 -291 -7 -780 4 -225 10
-1269 13 -2320 4 -1050 8 -1930 9 -1955 1 -25 3 -723 5 -1553 1 -829 6 -1507
10 -1507 4 0 10 7 14 15 20 52 25 -13 25 -345 1 -198 3 -365 5 -372 3 -7 7
-25 10 -40 4 -15 16 -37 28 -48 12 -11 19 -22 17 -24 -3 -3 -23 12 -46 32 -45
42 -58 77 -69 187 l-7 70 -9 -40 c-5 -22 -7 -67 -4 -101 18 -215 180 -342 591
-464 62 -19 385 -80 500 -95 310 -40 1013 -53 1360 -25 250 20 609 72 630 91
5 5 19 9 30 9 32 0 169 44 264 84 180 76 291 166 344 278 28 58 50 187 30 175
-6 -4 -13 -19 -16 -34 -3 -16 -12 -36 -19 -46 -14 -18 -14 -19 -19 448 -3 185
5 247 28 238 14 -6 15 387 10 4018 -4 2790 -9 4049 -17 4104 -22 167 -53 304
-80 355 -28 54 -81 171 -95 211 -8 20 -25 55 -39 78 -14 22 -26 44 -26 47 0 4
-15 25 -33 48 -19 23 -39 51 -46 64 -10 20 -106 135 -151 183 -8 8 -27 29 -41
45 -14 16 -47 47 -73 69 -27 22 -65 54 -85 71 -68 58 -76 64 -86 65 -5 1 -16
10 -23 20 -7 11 -18 19 -24 19 -5 0 -24 10 -41 22 -18 13 -34 23 -37 23 -3 0
-34 17 -69 38 -81 48 -101 52 -207 37 -97 -14 -106 -10 -103 45 1 17 1 58 0
93 -1 56 -3 62 -22 62 -20 0 -21 4 -19 113 2 61 2 129 1 150 l-1 39 -52 -6
c-29 -4 -70 -9 -91 -12 -36 -6 -39 -5 -36 18 5 33 -25 61 -68 65 -27 2 -36 -2
-44 -20 -10 -21 -67 -47 -104 -47 -24 0 -7 -20 18 -21 26 -2 -56 -17 -95 -18
-16 -1 -28 4 -28 9 0 6 10 10 23 11 17 0 14 3 -13 13 -22 8 -42 9 -53 4 -9 -5
-21 -6 -26 -3 -5 3 -20 1 -33 -4 -17 -7 -18 -10 -5 -10 9 -1 17 -5 17 -11 0
-13 -167 -14 -174 -1 -3 5 8 8 25 7 19 0 34 5 37 13 3 8 0 11 -7 7 -7 -5 -9
-1 -5 8 9 23 -26 33 -38 12 -8 -14 -18 -16 -47 -12 -92 16 -93 17 -87 40 7 30
-27 29 -54 -1z m330 -102 c44 -8 44 -9 9 -10 -44 -1 -54 -10 -31 -27 16 -12
16 -13 -3 -14 -17 -1 -16 -3 5 -11 23 -10 24 -11 6 -21 -15 -8 -16 -12 -5 -19
11 -7 11 -9 1 -9 -15 0 -9 -89 11 -150 6 -19 10 -39 9 -44 -2 -5 5 -17 14 -27
9 -10 13 -23 9 -28 -3 -6 1 -14 11 -18 15 -5 14 -8 -7 -16 l-24 -9 25 -10 c40
-17 122 -22 130 -7 5 6 9 64 10 128 1 64 3 131 5 149 3 21 0 32 -8 33 -6 0 2
7 18 14 l30 14 -35 1 c-29 1 -33 3 -19 13 25 19 30 45 11 56 -13 8 -10 10 18
16 50 9 172 1 143 -9 -26 -9 -32 -46 -8 -46 8 0 15 -4 15 -9 0 -10 -31 -20
-70 -22 -14 -1 0 -5 30 -9 51 -6 53 -7 30 -17 -20 -9 -21 -12 -6 -12 15 -1 16
-4 7 -15 -9 -10 -9 -16 -1 -21 8 -5 8 -11 -1 -21 -6 -8 -7 -14 -2 -14 10 0 19
-61 29 -187 2 -30 -1 -55 -7 -58 -15 -10 -470 -18 -555 -10 -41 4 -74 11 -74
16 0 5 24 6 53 3 45 -4 56 -1 72 16 10 11 13 20 7 20 -7 0 -8 10 -1 33 4 17
10 84 11 147 2 63 8 118 13 122 6 5 5 8 -4 8 -11 0 -11 3 -1 15 9 10 9 15 1
15 -20 0 -12 17 12 24 20 7 18 9 -18 21 l-40 13 65 0 c36 0 85 -3 110 -7z
m-95 -661 c3 -5 1 -10 -4 -10 -6 0 -11 -4 -11 -10 0 -5 7 -10 15 -10 8 0 15
-4 15 -10 0 -5 -9 -10 -20 -10 -11 0 -20 -4 -20 -10 0 -5 7 -10 15 -10 23 0
18 -17 -7 -25 -23 -6 -22 -7 5 -17 15 -5 27 -14 27 -19 0 -5 7 -9 15 -9 9 0
15 -9 15 -24 0 -18 7 -26 23 -29 l22 -4 -23 -8 c-23 -7 -22 -8 12 -32 29 -22
34 -30 30 -57 -4 -24 1 -37 23 -61 18 -18 27 -38 25 -50 -4 -20 -4 -20 17 -1
16 14 25 16 32 9 16 -16 5 -28 -41 -43 -43 -14 -62 -30 -36 -30 18 0 21 -16 5
-25 -13 -9 18 -45 39 -45 11 0 12 -3 2 -15 -14 -17 -5 -35 18 -35 10 0 31 -12
47 -27 24 -23 26 -28 12 -31 -9 -2 -17 -7 -17 -12 0 -5 6 -7 14 -4 8 3 24 1
35 -6 17 -8 20 -18 16 -45 -4 -32 -2 -35 23 -36 l27 -1 -30 -8 -30 -7 27 -7
c16 -5 25 -13 22 -21 -4 -9 5 -15 28 -17 33 -3 33 -4 32 -51 -2 -54 19 -62 24
-9 2 18 8 32 14 32 6 0 5 7 -3 17 -12 14 -12 16 1 11 10 -3 14 -15 12 -36 -2
-16 1 -33 6 -36 12 -7 59 29 74 57 10 20 10 21 -6 8 -9 -8 -20 -11 -23 -7 -15
15 -11 40 9 56 15 12 22 31 24 61 2 24 3 47 3 51 1 3 9 9 19 11 14 4 13 6 -6
12 -17 6 -22 13 -18 26 3 11 9 27 12 38 4 13 -1 20 -18 25 l-23 6 24 19 c15
11 20 21 13 25 -6 4 -9 13 -6 20 3 8 1 17 -5 21 -17 10 -13 23 9 30 14 5 19
12 15 24 -3 11 4 28 20 45 20 22 22 28 10 32 -8 4 -15 15 -15 26 0 14 5 18 15
14 8 -3 15 -1 15 4 0 6 -4 10 -10 10 -5 0 -10 6 -10 14 0 19 52 23 120 10 47
-9 52 -12 35 -21 -11 -6 -26 -8 -32 -6 -7 3 -13 -1 -13 -8 0 -7 3 -10 6 -6 3
3 19 1 34 -5 25 -8 28 -13 20 -34 -8 -19 -6 -24 6 -24 12 0 14 -5 9 -17 -11
-25 -8 -56 9 -88 8 -15 12 -34 9 -41 -3 -8 0 -14 7 -14 6 0 10 -5 8 -12 -3 -7
8 -24 23 -39 24 -24 26 -28 11 -32 -12 -3 -11 -5 6 -6 21 -1 33 -21 12 -21 -5
0 -10 -4 -10 -10 0 -5 7 -10 15 -10 8 0 15 -4 15 -10 0 -5 -4 -10 -10 -10 -5
0 -10 -9 -10 -20 0 -13 7 -20 20 -20 25 0 27 -20 3 -21 -15 0 -15 -2 2 -9 19
-8 19 -9 1 -9 -16 -1 -14 -5 13 -25 19 -14 28 -27 22 -31 -6 -3 -11 -13 -11
-21 0 -8 4 -13 8 -10 11 7 44 -127 36 -147 -3 -8 4 -24 17 -36 19 -17 20 -23
8 -37 -11 -14 -11 -18 1 -28 8 -6 17 -20 18 -31 2 -11 13 -38 23 -59 24 -49
24 -63 2 -69 -11 -3 -7 -5 10 -6 28 -1 39 -21 11 -21 -11 0 -15 -6 -12 -18 3
-10 -1 -27 -8 -37 -8 -10 -14 -34 -14 -52 0 -20 -5 -33 -12 -33 -9 0 -10 -2
-2 -8 7 -4 10 -24 8 -47 -10 -120 -14 -148 -24 -160 -8 -9 -8 -15 0 -20 15 -9
12 -25 -6 -25 -9 0 -14 -6 -11 -12 2 -7 9 -12 15 -11 6 1 8 -25 6 -70 -7 -150
-6 -209 5 -220 8 -8 7 -14 -1 -24 -14 -17 -20 -113 -7 -113 5 0 9 -9 9 -20 0
-11 -6 -20 -12 -20 -9 0 -9 -3 1 -9 12 -8 12 -12 2 -24 -10 -13 -9 -17 6 -26
17 -11 17 -11 0 -22 -10 -6 -14 -15 -10 -22 8 -13 5 -66 -5 -82 -11 -16 -9
-69 3 -77 7 -5 6 -14 -3 -28 -10 -17 -10 -21 2 -26 8 -3 17 -12 20 -21 4 -11
2 -13 -9 -9 -14 5 -21 -12 -15 -39 5 -29 6 -117 0 -167 -3 -32 -3 -59 0 -60
10 -4 22 -58 13 -58 -11 0 -10 -142 0 -158 5 -7 4 -19 -3 -27 -8 -10 -8 -15 1
-21 9 -5 7 -10 -5 -20 -16 -11 -16 -13 3 -19 20 -6 20 -7 4 -31 -14 -22 -14
-27 -2 -35 11 -8 10 -13 -10 -29 l-23 -20 43 0 c24 0 121 5 214 12 94 6 183 8
197 5 15 -4 41 -22 57 -40 64 -68 61 -6 60 -1277 0 -635 -4 -1310 -8 -1500 -6
-334 -7 -346 -29 -393 -26 -52 -81 -102 -121 -110 -14 -3 -127 -18 -251 -34
-124 -15 -208 -29 -188 -31 42 -4 67 -32 45 -50 -6 -6 -12 -33 -12 -60 0 -36
-3 -48 -12 -45 -7 3 -13 0 -13 -6 0 -6 6 -11 14 -11 9 0 13 -12 11 -42 -2 -49
4 -66 16 -47 6 10 9 4 9 -18 0 -23 -5 -33 -15 -33 -8 0 -15 -7 -15 -15 0 -8 4
-15 8 -15 8 0 7 -108 -2 -195 -2 -27 -1 -54 3 -60 9 -11 8 -70 -2 -95 -11 -29
-14 -70 -6 -70 13 0 11 -57 -1 -65 -6 -4 -7 -11 -4 -17 4 -6 3 -8 -2 -5 -6 3
-16 2 -24 -4 -12 -7 -10 -9 8 -9 22 0 23 -3 19 -46 -3 -25 -12 -53 -21 -63
-15 -16 -15 -20 -1 -31 8 -7 12 -16 9 -22 -3 -5 -1 -15 6 -23 8 -10 8 -19 0
-34 -6 -12 -7 -21 -2 -21 14 0 9 -93 -6 -98 -15 -5 -16 -44 0 -60 9 -9 9 -15
1 -23 -10 -10 -9 -162 2 -213 2 -11 -1 -28 -6 -38 -7 -14 -7 -24 2 -34 10 -13
10 -17 -2 -24 -11 -7 -12 -15 -2 -40 9 -25 9 -31 0 -27 -9 3 -12 -8 -12 -35 0
-34 1 -37 12 -22 11 16 13 13 13 -19 0 -26 -4 -37 -15 -37 -8 0 -15 -7 -15
-15 0 -9 7 -18 15 -21 20 -8 19 -33 -1 -41 -13 -5 -13 -7 -2 -14 10 -6 10 -13
2 -26 -14 -23 -10 -88 7 -109 10 -13 10 -17 0 -24 -8 -4 -10 -13 -6 -19 4 -7
2 -18 -4 -25 -8 -10 -6 -19 9 -36 24 -27 26 -46 5 -54 -9 -3 -15 0 -15 8 0 8
6 17 13 19 9 4 9 6 -1 6 -15 1 -32 -38 -25 -56 3 -7 10 -10 16 -6 6 4 8 -3 3
-20 -3 -14 -1 -38 6 -53 10 -22 10 -28 0 -32 -6 -2 -12 -12 -12 -23 0 -11 5
-16 14 -13 7 3 16 -2 20 -12 4 -11 2 -15 -8 -11 -10 4 -16 -6 -20 -36 -4 -26
-3 -43 4 -45 13 -5 13 -57 0 -82 -13 -24 7 -120 29 -138 13 -10 15 -31 12
-115 -6 -185 -4 -254 9 -330 9 -55 10 -87 2 -117 -6 -26 -6 -42 0 -46 5 -4 7
-16 3 -28 -10 -34 -13 -76 -3 -70 16 10 8 -17 -12 -38 -22 -24 -26 -38 -10
-38 13 0 7 -74 -8 -92 -16 -19 -12 -69 7 -88 13 -13 12 -15 -7 -18 -18 -3 -21
-9 -19 -35 1 -24 -3 -34 -22 -43 -22 -11 -22 -12 -5 -23 18 -10 17 -10 -4 -11
-13 0 -20 -4 -17 -10 4 -6 3 -10 -2 -9 -4 1 -17 1 -28 0 -17 -1 -18 -3 -5 -11
29 -19 -15 -39 -87 -38 -38 0 -60 4 -52 8 7 5 17 6 21 4 4 -3 8 2 8 11 0 9 -5
13 -10 10 -6 -3 -10 -1 -10 5 0 6 -7 18 -15 26 -8 8 -12 21 -9 29 4 9 0 15
-10 15 -9 0 -13 6 -10 14 3 8 1 17 -5 20 -6 4 -8 13 -5 20 3 8 0 17 -6 21 -9
6 -9 10 1 16 11 7 10 9 -5 9 -13 0 -17 5 -13 20 3 14 -1 24 -15 31 -14 7 -16
14 -9 23 6 7 9 65 8 138 -1 88 3 130 11 141 8 9 9 18 4 21 -18 11 -21 70 -5
88 13 15 13 18 -4 29 -18 10 -18 15 -8 47 8 23 10 46 4 65 -8 29 10 75 23 61
3 -3 9 0 14 7 5 8 3 10 -6 4 -9 -6 -10 -2 -4 16 4 13 7 32 6 41 0 10 6 18 14
18 10 0 12 5 7 13 -4 6 -9 28 -10 47 -1 19 -5 55 -8 80 -9 60 -7 87 6 111 6
11 7 28 3 37 -7 16 -9 27 -12 65 -1 10 -6 15 -12 12 -16 -10 -12 31 5 45 9 8
13 21 9 36 -4 13 -1 31 5 38 7 9 8 17 3 20 -26 16 -43 269 -25 358 6 25 9 68
7 95 -1 26 2 53 7 59 6 8 4 14 -6 18 -19 7 -19 30 0 50 13 13 13 16 0 30 -8 8
-11 17 -7 20 10 6 9 132 -1 142 -12 12 -8 62 6 68 10 5 10 7 0 12 -18 8 -16
34 4 56 14 15 15 21 4 27 -9 6 -10 11 -2 15 15 10 14 22 -6 41 -14 15 -15 22
-4 51 7 19 9 38 6 44 -3 5 0 10 7 10 9 0 10 3 2 8 -15 10 -23 81 -12 111 6 17
4 31 -7 47 -13 21 -13 24 3 34 16 9 16 11 -3 25 -17 13 -18 18 -7 36 8 12 10
26 5 32 -7 11 -9 34 -3 47 1 3 4 22 6 43 1 21 8 44 13 51 10 12 4 56 -8 56 -6
0 -7 97 -1 113 6 17 6 33 -3 51 -7 14 -6 16 3 11 10 -6 11 -1 5 21 -12 44 -12
194 0 194 6 0 5 3 -1 8 -6 4 -10 23 -8 42 1 19 -4 50 -13 69 -13 28 -13 37 -2
58 10 19 10 28 1 43 -8 14 -8 21 -1 26 6 3 8 19 5 35 -3 17 -1 30 7 33 8 3 6
10 -7 20 -20 16 -20 16 0 16 10 0 24 4 31 8 6 4 -203 7 -465 7 -411 1 -513 4
-737 24 -222 19 -266 26 -300 44 -44 25 -99 98 -115 155 -13 50 -14 2999 -1
3035 16 41 79 105 115 117 23 7 64 8 137 1 167 -17 988 -35 1170 -27 157 8
166 9 162 27 -3 10 -10 19 -15 19 -6 0 -8 9 -5 21 3 12 2 32 -3 45 -6 15 -6
26 1 30 7 4 6 10 -1 19 -13 16 -2 95 13 95 6 0 4 7 -5 16 -12 13 -14 23 -7 41
5 14 6 30 2 36 -10 17 -3 91 10 99 8 5 6 8 -5 8 -21 0 -24 16 -5 24 10 5 10 7
0 12 -18 8 -16 24 2 24 12 0 13 4 2 27 -9 21 -9 27 1 31 18 6 14 32 -5 32 -17
1 -17 1 0 14 20 16 21 25 5 63 -6 15 -12 41 -14 57 -1 16 -5 51 -8 77 -4 29
-2 57 4 69 7 13 8 32 2 54 -6 18 -6 40 -1 47 5 8 3 17 -4 21 -9 6 -8 11 3 18
10 7 12 12 4 18 -18 12 -24 52 -8 52 12 0 12 4 3 21 -8 16 -8 27 1 45 10 17
10 27 2 37 -8 10 -8 24 -1 52 8 29 8 40 0 43 -6 2 -11 12 -11 23 0 12 5 16 15
13 13 -5 14 -2 5 22 -6 16 -9 43 -5 61 5 31 4 33 -22 34 l-28 2 28 4 c19 3 27
9 23 18 -2 7 2 21 9 32 19 25 19 53 -1 53 -11 0 -14 5 -9 18 25 61 29 111 12
140 -5 6 -5 17 -2 23 4 6 -3 21 -15 34 -12 13 -19 28 -16 34 4 6 2 21 -5 33
-15 29 -48 199 -50 260 -2 34 -6 48 -16 48 -8 0 -11 5 -8 10 4 6 12 7 18 3 7
-4 7 -1 -1 9 -8 9 -20 14 -27 12 -8 -3 -22 -1 -32 5 -17 9 -16 11 7 20 23 9
24 10 3 10 -12 1 -28 -5 -35 -11 -9 -9 -52 -13 -150 -11 -76 1 -140 -3 -144
-8 -3 -5 5 -9 18 -10 l23 0 -24 -10 c-13 -5 -48 -10 -78 -10 -34 -1 -50 -5
-41 -10 9 -6 1 -9 -22 -10 -19 -1 -27 -3 -17 -6 9 -2 17 -8 17 -13 0 -5 -7 -7
-15 -4 -15 6 -25 -18 -27 -66 -1 -14 -6 -31 -11 -37 -6 -9 -4 -15 7 -19 22 -9
20 -27 -3 -19 -24 7 -49 -20 -26 -29 9 -3 13 -11 10 -17 -4 -6 -13 -8 -20 -5
-10 3 -11 -2 -6 -22 12 -50 7 -67 -17 -65 -13 2 -21 -1 -17 -7 3 -6 16 -10 28
-10 l22 -1 -23 -12 c-17 -10 -19 -16 -10 -25 9 -9 9 -17 -2 -37 -7 -14 -10
-28 -7 -32 4 -3 2 -12 -4 -19 -7 -9 -7 -19 0 -32 6 -11 7 -22 3 -26 -3 -4 0
-11 8 -16 11 -7 11 -12 2 -23 -10 -12 -9 -16 3 -21 18 -7 20 -42 3 -50 -10 -3
-8 -9 5 -19 16 -13 16 -15 1 -21 -9 -3 -20 -3 -26 0 -7 4 -6 0 0 -13 6 -10 7
-25 3 -32 -11 -17 -5 -111 8 -124 8 -8 5 -17 -10 -33 -13 -14 -17 -24 -10 -28
7 -5 5 -16 -6 -33 -16 -24 -16 -26 3 -40 18 -13 18 -15 2 -27 -9 -7 -19 -30
-21 -51 -2 -22 -9 -41 -16 -43 -8 -3 -7 -8 4 -16 19 -13 11 -46 -12 -46 -8 0
-11 -4 -8 -10 3 -5 18 -10 33 -10 21 0 24 -2 12 -10 -13 -8 -12 -11 5 -24 11
-9 16 -16 10 -16 -5 0 -11 -11 -11 -25 -1 -14 2 -23 6 -20 17 10 23 -18 6 -30
-9 -7 -14 -19 -10 -29 4 -9 0 -18 -9 -22 -12 -4 -10 -10 9 -31 24 -26 32 -53
15 -53 -6 0 -16 -12 -23 -27 -7 -16 -23 -32 -36 -38 -12 -5 -22 -15 -22 -22 0
-20 -28 -15 -40 7 -6 11 -8 20 -5 20 3 0 -5 11 -19 25 -20 20 -24 30 -17 48 5
12 5 31 1 42 -4 12 -2 28 6 40 22 32 18 46 -13 39 -26 -7 -26 -6 -19 35 5 32
3 43 -9 47 -23 9 -18 31 10 38 14 4 25 11 25 16 0 6 -11 8 -24 4 -16 -4 -25
-1 -29 10 -9 22 2 46 22 47 14 1 14 2 -1 6 -10 2 -18 13 -18 24 0 16 4 19 21
14 15 -5 19 -4 15 4 -4 6 -14 11 -23 11 -10 0 -14 6 -10 20 3 11 2 22 -2 25
-9 5 -7 32 4 59 6 13 3 23 -8 31 -15 11 -15 13 3 30 17 15 17 19 4 32 -11 12
-14 31 -10 80 2 36 7 67 10 70 3 3 -3 18 -14 34 -16 21 -18 33 -10 53 6 16 6
27 0 31 -18 11 -10 26 9 20 11 -3 22 -1 26 5 3 5 0 10 -7 10 -10 0 -10 2 1 9
7 5 10 14 7 20 -4 6 -1 11 6 12 7 0 2 5 -12 10 -14 5 -31 18 -38 30 -11 18
-11 23 4 33 14 11 14 15 3 34 -11 18 -11 24 4 40 16 18 16 19 -8 30 -15 7 -24
16 -21 20 3 5 -1 20 -8 34 -12 24 -12 27 8 37 21 11 21 11 -1 5 -16 -4 -23 -1
-23 10 0 8 5 18 10 21 16 10 12 25 -7 25 -28 1 -54 25 -47 44 3 9 10 16 15 16
4 0 6 7 3 15 -4 8 -1 15 5 15 6 0 11 5 11 10 0 6 -7 10 -15 10 -8 0 -15 5 -15
10 0 6 9 10 19 10 14 0 18 5 14 20 -3 11 -10 20 -15 20 -6 0 -8 7 -4 15 3 9
-6 28 -22 44 -15 17 -49 55 -77 86 -27 30 -54 55 -60 55 -6 0 -23 -40 -38 -90
-16 -49 -33 -90 -38 -90 -12 0 -12 0 4 46 8 22 17 61 21 89 l6 50 -70 -73
c-78 -82 -89 -85 -32 -8 42 56 57 86 41 86 -5 0 -12 -7 -15 -15 -4 -8 -10 -15
-15 -15 -14 0 -10 20 7 38 11 10 13 17 5 20 -16 5 -14 22 3 22 20 0 27 61 10
81 -20 22 2 40 44 35 23 -3 29 -1 25 10 -3 9 2 14 16 14 14 0 25 9 31 25 5 14
25 33 45 42 43 21 45 33 4 33 l-32 0 37 25 c20 14 41 25 47 25 6 0 8 4 4 10
-7 12 30 50 50 50 8 0 14 6 13 13 -2 7 5 11 15 9 15 -3 17 1 12 17 -5 16 -1
20 22 23 16 2 27 8 25 16 -1 6 2 12 7 12 5 0 9 12 9 27 0 14 7 32 16 38 9 7
16 26 16 43 0 21 7 35 20 42 11 6 20 8 20 4 0 -3 7 -1 16 7 9 7 14 22 11 36
-5 26 14 46 35 38 9 -4 18 1 21 9 4 10 1 16 -7 16 -8 0 -17 7 -20 16 -4 10 4
19 27 29 18 8 25 14 15 15 -10 0 -18 5 -18 11 0 6 6 9 14 6 7 -3 20 3 29 14
12 14 30 19 66 19 28 0 53 -4 56 -10z"/>
<path d="M5965 8390 c-269 -30 -647 -42 -1110 -37 -264 3 -551 11 -637 17
-149 11 -160 11 -195 -7 -24 -13 -46 -35 -60 -63 l-23 -44 2 -1425 3 -1426 22
-41 c26 -50 72 -90 110 -98 124 -25 745 -50 1053 -42 470 13 658 25 895 61 86
13 92 16 126 54 21 23 41 60 48 85 8 32 11 447 11 1457 l0 1411 -22 40 c-38
67 -67 74 -223 58z m-57 -227 l60 -67 -28 -36 c-15 -19 -46 -55 -68 -80 l-41
-45 -1 43 0 42 -37 -5 c-91 -13 -453 -25 -735 -25 -287 0 -308 -1 -308 -17 0
-10 -2 -121 -3 -248 -2 -264 9 -242 -112 -230 l-73 7 -83 164 c-46 90 -90 164
-96 164 -10 0 -13 -39 -13 -160 l0 -161 -62 3 -63 3 -3 324 -2 324 31 -7 c17
-3 53 -6 80 -6 l48 0 88 -172 c48 -94 94 -173 101 -176 9 -3 12 35 12 167 l0
171 203 -6 c185 -6 693 7 930 22 l97 7 0 34 c0 18 4 33 9 33 5 0 36 -30 69
-67z m-140 -250 l-3 -48 -135 -8 c-74 -4 -140 -9 -145 -11 -6 -2 -11 -17 -10
-32 l0 -29 143 3 142 4 0 -135 0 -135 -62 -7 c-35 -3 -126 -7 -203 -8 l-140
-2 -3 46 -3 46 47 7 c26 3 86 6 133 6 116 0 131 5 131 41 l0 29 -150 -6 -150
-7 0 135 0 135 178 10 c97 5 190 10 205 11 27 2 28 1 25 -45z m-488 -192 c0
-181 -2 -220 -14 -224 -8 -3 -113 -5 -233 -4 l-218 2 -3 217 -2 218 217 3
c120 1 226 3 236 5 16 2 17 -14 17 -217z m629 -617 c22 -14 41 -33 43 -42 2
-9 2 -283 0 -608 l-4 -592 -23 -28 -23 -29 -239 -12 c-463 -23 -1314 -11
-1361 18 -11 7 -27 25 -36 40 -15 26 -17 87 -17 608 -1 626 -1 624 53 647 15
7 97 8 248 2 218 -9 775 -3 1050 12 260 13 266 13 309 -16z m-1646 -1411 c20
-17 20 -17 14 1 -7 16 -4 18 24 12 17 -3 38 -6 45 -6 8 0 14 -7 14 -15 0 -18
5 -19 32 -4 16 9 24 7 37 -6 12 -13 13 -19 4 -22 -7 -3 -13 -11 -13 -18 0 -7
6 -15 13 -18 9 -4 9 -7 -1 -18 -18 -19 -45 0 -53 37 -5 21 -7 24 -9 9 -1 -11
-2 -26 -1 -32 1 -8 -9 -13 -23 -13 -22 0 -24 3 -20 40 2 21 -1 42 -6 45 -6 4
-10 -10 -10 -34 0 -52 -17 -62 -47 -25 l-23 29 2 -25 c2 -17 -2 -25 -12 -25
-11 0 -16 14 -18 53 -3 44 0 52 14 52 10 0 26 -8 37 -17z m1124 -11 c6 -14
170 -15 179 0 7 10 15 10 32 -1 12 -7 12 -12 0 -30 -11 -18 -11 -23 0 -30 11
-6 10 -10 0 -19 -16 -13 -29 -5 -46 28 -7 14 -10 17 -8 8 9 -30 -5 -48 -35
-48 -25 0 -29 4 -29 28 -1 25 -3 24 -22 -15 -15 -33 -26 -43 -44 -43 -17 0
-24 6 -24 19 0 11 5 21 12 23 8 3 8 9 0 24 -11 19 -11 19 -12 -1 0 -12 -5 -26
-12 -33 -16 -16 -65 -15 -74 0 -13 21 -4 82 13 95 20 16 64 13 70 -5z m501
-21 c4 -40 -8 -50 -60 -49 -34 0 -38 3 -39 27 l-2 26 -4 -27 c-2 -16 -7 -28
-11 -29 -4 0 -24 -2 -44 -4 -33 -4 -38 -1 -39 18 -2 22 -2 22 -6 -1 -6 -31
-52 -27 -64 5 -13 35 11 50 81 51 34 1 75 4 91 7 26 6 29 4 30 -22 1 -20 3
-22 6 -8 9 41 13 46 35 43 18 -2 24 -11 26 -37z m-969 14 c25 -21 91 -23 102
-2 6 9 19 17 29 17 17 0 20 -8 21 -47 1 -27 4 -38 6 -25 5 26 76 77 92 67 6
-3 11 -16 11 -28 0 -13 3 -17 8 -11 23 35 72 17 72 -27 0 -33 -32 -53 -61 -38
-8 4 -31 4 -51 0 -20 -5 -42 -5 -49 0 -7 4 -18 5 -24 1 -5 -4 -40 -7 -77 -8
-49 -1 -68 3 -68 12 0 7 5 16 10 19 12 8 13 25 1 25 -5 0 -11 -9 -14 -20 -3
-11 -17 -25 -31 -31 -23 -11 -31 -10 -54 8 -34 25 -39 56 -13 82 24 24 67 27
90 6z m-322 -17 c7 -5 14 -5 18 2 3 5 17 7 31 4 14 -4 48 -7 77 -8 l52 -1 0
-35 0 -35 -73 -3 c-57 -2 -74 0 -78 12 -5 13 -9 13 -30 -1 -20 -13 -30 -14
-49 -5 -14 7 -25 18 -25 27 0 8 -7 15 -15 15 -9 0 -14 -8 -12 -19 1 -11 -1
-20 -5 -20 -33 -3 -38 1 -38 32 0 19 3 36 6 40 9 9 127 5 141 -5z m960 -148
c8 -11 19 -18 24 -15 5 4 9 2 9 -4 0 -6 -15 -10 -33 -9 -19 1 -39 -2 -45 -6
-8 -5 -12 1 -13 16 0 23 0 23 -11 -2 l-11 -25 -6 25 -7 25 -6 -24 c-6 -19 -12
-23 -32 -19 -14 3 -26 2 -26 -2 0 -11 -134 -8 -142 4 -5 8 -8 7 -8 -1 0 -7 -6
-13 -14 -13 -11 0 -12 6 -4 28 10 26 15 28 66 30 30 1 56 3 57 4 2 2 45 4 96
5 82 2 94 0 106 -17z m-917 -1 c0 -8 4 -8 13 -1 13 11 198 9 216 -2 6 -4 9
-12 6 -17 -4 -5 -1 -9 4 -9 6 0 11 7 11 15 0 23 17 18 24 -7 9 -36 9 -36 -39
-34 -29 0 -45 5 -45 14 0 9 -7 9 -31 -3 -19 -10 -35 -13 -42 -7 -7 4 -35 7
-64 6 -45 -3 -51 -1 -47 14 5 16 5 15 -6 0 -18 -29 -46 -23 -44 10 2 34 0 32
24 32 11 0 20 -5 20 -11z"/>
<path d="M4932 7704 l3 -117 105 2 c57 1 106 3 107 5 2 1 4 53 5 114 l3 112
-113 0 -113 0 3 -116z"/>
<path d="M4440 6715 l-124 -125 34 -37 c19 -21 77 -81 129 -135 93 -96 94 -96
114 -77 17 16 36 19 108 19 89 0 119 5 119 21 0 5 -36 9 -80 9 -44 0 -80 3
-80 8 0 4 38 45 85 92 l85 84 -27 28 c-14 15 -31 25 -36 21 -6 -3 -7 -2 -4 4
3 5 -18 34 -48 63 -30 30 -55 57 -55 61 0 3 33 9 72 13 106 10 110 26 8 27
-119 1 -129 3 -146 27 -8 12 -18 22 -22 22 -4 0 -63 -56 -132 -125z"/>
</g>
</svg>
