<?xml version="1.0" standalone="no"?>
<!DOCTYPE svg PUBLIC "-//W3C//DTD SVG 20010904//EN"
 "http://www.w3.org/TR/2001/REC-SVG-20010904/DTD/svg10.dtd">
<svg version="1.0" xmlns="http://www.w3.org/2000/svg"
 width="200.000000pt" height="200.000000pt" viewBox="0 0 200.000000 200.000000"
 preserveAspectRatio="xMidYMid meet">
<metadata>
Created by potrace 1.16, written by Peter Selinger 2001-2019
</metadata>
<g transform="translate(0.000000,200.000000) scale(0.100000,-0.100000)"
fill="#000000" stroke="none">
<path d="M803 1894 c-346 -76 -625 -357 -698 -705 -19 -91 -19 -287 0 -378 74
-352 354 -632 706 -706 91 -19 287 -19 378 0 352 74 632 354 706 706 19 91 19
287 0 378 -74 352 -354 632 -706 706 -87 19 -300 18 -386 -1z m417 -184 c127
-43 199 -88 300 -190 72 -72 105 -114 135 -173 l40 -78 -27 -22 c-16 -13 -28
-28 -28 -35 0 -7 -2 -12 -4 -12 -2 0 -89 -12 -192 -26 -206 -28 -249 -26 -305
11 -49 32 -115 48 -164 40 -22 -3 -73 -22 -114 -42 l-74 -37 -191 23 c-220 26
-236 29 -236 44 0 6 -12 21 -27 33 l-28 23 39 78 c31 61 61 99 135 173 103
103 179 151 301 189 94 29 102 30 245 26 101 -2 144 -8 195 -25z m-744 -690
c150 -42 281 -107 331 -164 68 -77 102 -217 103 -413 0 -81 -3 -103 -14 -103
-8 0 -17 -11 -20 -25 -13 -50 -89 -39 -231 33 -106 55 -247 200 -303 312 -47
94 -82 218 -82 290 0 49 13 70 42 70 10 0 21 7 24 15 8 21 26 19 150 -15z
m1194 21 c0 -4 15 -12 33 -17 30 -9 32 -12 35 -62 4 -74 -29 -200 -80 -302
-59 -118 -197 -257 -313 -316 -104 -53 -208 -82 -230 -64 -8 7 -15 21 -15 32
0 10 -7 21 -15 24 -20 8 -20 87 0 219 20 131 37 188 77 255 55 92 170 155 387
215 94 26 121 29 121 16z"/>
</g>
</svg>
